<?xml version="1.0" encoding="utf-8"?>
<!-- Generator: Adobe Illustrator 24.1.2, SVG Export Plug-In . SVG Version: 6.00 Build 0)  -->
<svg version="1.1" id="Layer_1" xmlns="http://www.w3.org/2000/svg" xmlns:xlink="http://www.w3.org/1999/xlink" x="0px" y="0px"
	 viewBox="0 0 24 24" style="enable-background:new 0 0 24 24;" xml:space="preserve">
<style type="text/css">
	.st0{fill:#A0AEC0;fill-opacity:0;}
	.st1{fill:#A0AEC0;}
</style>
<g>
	<g>
		<rect class="st0" width="24" height="24"/>
		<circle class="st1" cx="12" cy="12" r="1.5"/>
		<path class="st1" d="M21.9,11.5c-0.6-1.1-4.2-6.7-10.1-6.5C6.2,5.1,3,10,2.1,11.5c-0.2,0.3-0.2,0.7,0,1c0.6,1.1,4,6.5,9.9,6.5h0.2
			c5.5-0.1,8.7-5,9.6-6.5C22,12.2,22,11.8,21.9,11.5z M12,15.5c-1.9,0-3.5-1.6-3.5-3.5s1.6-3.5,3.5-3.5s3.5,1.6,3.5,3.5
			S13.9,15.5,12,15.5z"/>
	</g>
</g>
</svg>
