<?xml version="1.0" encoding="utf-8"?>
<!-- Generator: Adobe Illustrator 24.1.2, SVG Export Plug-In . SVG Version: 6.00 Build 0)  -->
<svg version="1.1" id="Layer_1" xmlns="http://www.w3.org/2000/svg" xmlns:xlink="http://www.w3.org/1999/xlink" x="0px" y="0px"
	 viewBox="0 0 24 24" style="enable-background:new 0 0 24 24;" xml:space="preserve">
<style type="text/css">
	.st0{opacity:0;fill:none;}
	.st1{fill:#A0AEC0;}
</style>
<g>
	<g>
		<g>
			<rect class="st0" width="24" height="24"/>
		</g>
		<g>
			<path class="st1" d="M16.8,6c0.9,0,1.7,0.3,2.3,0.9c1.2,1.2,1.2,3.4,0,4.6L12,18.6l-7.1-7.1c-1.2-1.2-1.2-3.4,0-4.6
				C5.5,6.3,6.3,6,7.2,6s1.7,0.3,2.3,0.9L10.6,8L12,9.4L13.4,8l1.1-1.1C15.1,6.3,15.9,6,16.8,6 M16.8,4c-1.3,0-2.7,0.5-3.7,1.5
				L12,6.6l-1.1-1.1C9.9,4.5,8.6,4,7.2,4S4.5,4.5,3.5,5.5c-2,2-2,5.4,0,7.4l7.8,7.8c0.2,0.2,0.4,0.3,0.7,0.3s0.5-0.1,0.7-0.3
				l7.8-7.8c2-2,2-5.4,0-7.4C19.5,4.5,18.1,4,16.8,4L16.8,4z"/>
		</g>
	</g>
</g>
</svg>
