<?xml version="1.0" encoding="utf-8"?>
<!-- Generator: Adobe Illustrator 24.1.2, SVG Export Plug-In . SVG Version: 6.00 Build 0)  -->
<svg version="1.1" id="Layer_1" xmlns="http://www.w3.org/2000/svg" xmlns:xlink="http://www.w3.org/1999/xlink" x="0px" y="0px"
	 viewBox="0 0 24 24" style="enable-background:new 0 0 24 24;" xml:space="preserve">
<style type="text/css">
	.st0{fill:#A0AEC0;fill-opacity:0;}
	.st1{fill:#A0AEC0;}
</style>
<g>
	<g>
		<rect class="st0" width="24" height="24"/>
		<path class="st1" d="M19.1,4.9C15.2,1,8.8,1,4.9,4.9c-2.9,2.9-3.8,7.3-2.1,11c0.1,0.2,0.1,0.4,0.1,0.6L2,20.8
			c-0.1,0.3,0,0.7,0.3,0.9C2.5,21.9,2.7,22,3,22h0.2l4.3-0.9c0.2,0,0.4,0,0.6,0.1c5.1,2.2,11-0.2,13.1-5.2
			C22.9,12.2,22,7.8,19.1,4.9L19.1,4.9z"/>
	</g>
</g>
</svg>
